# xmcd
#
# Track frame offsets:
#  150
#  15199
#  50431
#  65221
#  79532
#  93882
#  110899
#  131613
#  146500
#  157835
#  176404
#  186661
#  208858
#  222545
#  235749
#  250096
#  262168
#  276702
#
# Disc length: 3827 seconds
#
# Revision: 0
# Processed by: cddbd v1.5.1PL2 Copyright (c) Steve Scherf et al.
# Submitted via: Collectorz.com_Music_Collector 6.11
#
DISCID=110ef112
DTITLE=André Rieu - Tour D'amour
DYEAR=1900
DGENRE=Instrumental
TTITLE0=Het Kleine Café Aan De Haven
TTITLE1=An Der Schönen Blauen Donau
TTITLE2=My Heart Will Go On
TTITLE3=Mein Liebeslied Muss Ein Walzer Sein
TTITLE4=True Love
TTITLE5=Granada
TTITLE6=The Old Castle
TTITLE7=Sous Le Ciel De Paris
TTITLE8=Tennessee Waltz
TTITLE9=Memories
TTITLE10=Qué Sera Sera
TTITLE11=Romance Pour Clara
TTITLE12=Edelweiss
TTITLE13=J'attendrai
TTITLE14=Feed The Birds
TTITLE15=Twee Ogen Zo Blauw
TTITLE16=Un Amour Perdu
TTITLE17=Guten Abend, Gut Nacht
EXTD=
EXTT0=
EXTT1=
EXTT2=
EXTT3=
EXTT4=
EXTT5=
EXTT6=
EXTT7=
EXTT8=
EXTT9=
EXTT10=
EXTT11=
EXTT12=
EXTT13=
EXTT14=
EXTT15=
EXTT16=
EXTT17=
PLAYORDER=
